<svg xmlns="http://www.w3.org/2000/svg" width="65" height="61.649" viewBox="0 0 97 92"><path data-name="Forma 1" d="M97.408 55.884L80.089 88.635a6.85 6.85 0 0 1-5.105 3.351L5.531 92A5.526 5.526 0 0 1 0 86.474l.012-53.89a5.527 5.527 0 0 1 5.523-5.524h5.078v4.708h-3.4a2.506 2.506 0 0 0-2.506 2.502v50.518a2.508 2.508 0 0 0 2.509 2.507H10.7l16.414-33.18c.927-1.853 2.68-3.35 4.532-3.35h40.2l.013-13.353a5.144 5.144 0 0 1 4.7 5.1v8.249H94.99c2.177.026 4.01 2.177 2.418 5.123zM13.815 70.592c-.15-16.514 0-66.061 0-66.061A4.537 4.537 0 0 1 18.349 0h36.309a2.076 2.076 0 0 1 1.528.671l11.739 12.744a2.08 2.08 0 0 1 .549 1.407v33.013h-3.808V17.672a.947.947 0 0 0-.947-.946h-8.985a1.906 1.906 0 0 1-1.906-1.9V4.751a.947.947 0 0 0-.947-.946H18.352a.727.727 0 0 0-.727.725v61.909l-2.914 5.891s-.881-.065-.896-1.738zm42.825-57.67h5.66l-5.659-6.143v6.143zM58.7 20.6H23.612a2.342 2.342 0 1 0 0 4.683H58.7a2.342 2.342 0 1 0 0-4.683zm2.344 15.976a2.345 2.345 0 0 0-2.344-2.34H23.612a2.34 2.34 0 1 0 0 4.679H58.7a2.345 2.345 0 0 0 2.348-2.337zm-39.775 13.73a2.342 2.342 0 0 0 2.342 2.339h.841a7.023 7.023 0 0 1 5.148-4.68h-5.989a2.344 2.344 0 0 0-2.342 2.341z" fill="#44b413" fill-rule="evenodd"/></svg>